<?xml version="1.0" encoding="UTF-8" standalone="no"?>
<svg
   xmlns:dc="http://purl.org/dc/elements/1.1/"
   xmlns:cc="http://creativecommons.org/ns#"
   xmlns:rdf="http://www.w3.org/1999/02/22-rdf-syntax-ns#"
   xmlns:svg="http://www.w3.org/2000/svg"
   xmlns="http://www.w3.org/2000/svg"
   xmlns:sodipodi="http://sodipodi.sourceforge.net/DTD/sodipodi-0.dtd"
   xmlns:inkscape="http://www.inkscape.org/namespaces/inkscape"
   version="1.0"
   width="480.000000pt"
   height="480.000000pt"
   viewBox="0 0 480.000000 480.000000"
   preserveAspectRatio="xMidYMid meet"
   id="svg32"
   sodipodi:docname="lion_darkmode.svg"
   inkscape:version="0.92.5 (2060ec1f9f, 2020-04-08)">
  <metadata
     id="metadata38">
    <rdf:RDF>
      <cc:Work
         rdf:about="">
        <dc:format>image/svg+xml</dc:format>
        <dc:type
           rdf:resource="http://purl.org/dc/dcmitype/StillImage" />
        <dc:title></dc:title>
      </cc:Work>
    </rdf:RDF>
  </metadata>
  <defs
     id="defs36" />
  <sodipodi:namedview
     pagecolor="#ffffff"
     bordercolor="#666666"
     borderopacity="1"
     objecttolerance="10"
     gridtolerance="10"
     guidetolerance="10"
     inkscape:pageopacity="0"
     inkscape:pageshadow="2"
     inkscape:window-width="1569"
     inkscape:window-height="971"
     id="namedview34"
     showgrid="false"
     inkscape:zoom="0.36875"
     inkscape:cx="320"
     inkscape:cy="320"
     inkscape:window-x="52"
     inkscape:window-y="27"
     inkscape:window-maximized="0"
     inkscape:current-layer="svg32" />
  <g
     id="g30"
     stroke="none"
     fill="#ffffff"
     transform="translate(0.000000,480.000000) scale(0.100000,-0.100000)">
    <path
       id="path2"
       d="M2030 4604 c-19 -3 -72 -11 -117 -20 -314 -56 -500 -212 -533 -444 -6 -41 -12 -76 -14 -78 -11 -10 -45 21 -56 50 l-11 33 -14 -25 c-57 -101 63 -208 209 -186 l45 7 -2 87 c-2 104 19 156 90 228 99 99 251 140 383 104 l45 -13 -108 -28 c-216 -57 -310 -143 -279 -254 14 -51 49 -46 122 19 34 31 68 56 74 56 9 0 11 -30 8 -114 -4 -113 -4 -114 19 -121 13 -4 33 -16 45 -26 11 -11 34 -23 50 -28 30 -8 30 -8 77 90 71 145 144 203 283 225 110 17 217 -111 217 -261 1 -131 -58 -204 -180 -227 l-61 -11 15 -51 c20 -69 68 -158 103 -191 l29 -28 6 29 c16 79 29 109 63 146 41 45 138 96 240 124 l62 17 0 56 c0 252 207 367 624 347 78 -3 152 -9 165 -13 44 -12 13 16 -60 52 -133 68 -297 126 -454 162 -64 14 -122 18 -291 18 -169 0 -210 3 -206 13 7 20 71 48 137 62 101 20 145 32 145 41 0 10 -189 82 -271 102 -129 32 -256 48 -409 52 -85 2 -171 1 -190 -1z" />
    <path
       id="path4"
       d="M2258 4026 c-82 -32 -128 -85 -128 -148 0 -31 3 -36 30 -42 17 -3 52 -26 79 -51 26 -25 51 -45 55 -45 3 0 6 16 6 36 0 45 15 73 46 84 34 13 30 38 -11 57 -66 31 -34 63 64 63 68 0 83 12 46 36 -34 22 -140 28 -187 10z" />
    <path
       id="path6"
       d="M3075 4021 c-66 -40 -93 -96 -102 -210 l-6 -79 46 -26 c25 -15 92 -45 149 -67 140 -54 201 -97 234 -164 42 -86 28 -101 -94 -104 -95 -2 -124 -38 -49 -61 77 -24 282 -129 380 -194 142 -95 232 -171 421 -356 l169 -165 -7 60 c-16 146 -79 277 -229 477 -84 114 -147 213 -147 233 0 3 17 5 38 5 50 0 131 -39 175 -85 33 -34 37 -36 37 -17 0 28 -29 100 -53 134 -24 32 -82 74 -157 114 -91 47 -167 102 -197 140 -26 35 -27 37 -8 50 25 18 81 34 123 34 39 0 92 21 110 43 12 14 8 16 -35 22 -75 9 -195 50 -358 122 -254 112 -371 137 -440 94z" />
    <path
       id="path8"
       d="M1155 3779 c-38 -35 -45 -47 -45 -80 0 -34 -3 -39 -27 -45 -16 -3 -50 -14 -78 -24 l-50 -19 40 0 c154 0 514 20 585 34 122 23 118 20 80 60 -19 19 -37 35 -40 35 -3 0 -11 -13 -17 -30 -10 -25 -17 -30 -46 -30 -20 0 -69 14 -110 30 -42 17 -81 30 -88 30 -7 0 -31 -18 -54 -39 -22 -21 -54 -42 -71 -46 -27 -5 -32 -3 -37 16 -7 26 5 53 41 91 14 16 22 33 19 42 -11 29 -55 18 -102 -25z" />
    <path
       id="path10"
       d="M1910 3772 c0 -5 14 -21 31 -38 45 -43 71 -100 77 -171 4 -54 1 -68 -21 -106 -29 -49 -82 -95 -175 -152 l-63 -38 29 -13 c108 -45 182 -192 182 -360 0 -104 -24 -175 -79 -228 -50 -49 -93 -57 -236 -46 -60 5 -146 12 -190 16 -95 8 -211 -8 -265 -36 -31 -16 -42 -29 -50 -58 -19 -72 -62 -117 -153 -162 -81 -40 -89 -42 -183 -44 -124 -1 -166 17 -205 88 -20 36 -28 44 -33 31 -9 -25 -7 -208 3 -224 6 -10 20 -12 46 -8 30 5 50 -1 105 -28 37 -19 75 -35 84 -35 10 0 36 13 59 28 53 36 132 67 222 88 60 13 81 14 147 3 l76 -12 -43 -33 c-145 -112 -247 -387 -232 -627 15 -228 107 -393 263 -468 34 -16 65 -29 69 -29 4 0 -7 16 -25 36 -17 20 -36 47 -41 61 -21 55 -3 153 28 153 37 0 109 -54 213 -160 170 -172 509 -490 566 -530 l49 -34 -48 56 c-152 180 -238 414 -257 703 -18 266 20 506 115 730 30 70 123 201 181 254 30 28 53 51 49 51 -10 0 -116 -70 -180 -119 -83 -63 -234 -210 -320 -311 -39 -47 -86 -101 -103 -120 -18 -19 -53 -64 -80 -100 -49 -68 -111 -110 -163 -110 -33 0 -39 14 -39 95 0 92 31 167 94 230 56 56 205 157 331 225 330 178 483 298 543 427 23 50 27 71 27 148 0 112 -21 160 -130 290 -79 94 -135 191 -135 233 0 16 21 46 63 90 124 130 125 144 27 235 -84 78 -230 160 -230 129z" />
    <path
       id="path12"
       d="M2808 3620 c-119 -15 -213 -85 -239 -178 -12 -44 -11 -48 22 -111 52 -101 131 -199 321 -397 193 -202 251 -279 331 -440 90 -180 129 -327 148 -553 26 -316 -46 -792 -185 -1214 -20 -60 -36 -113 -36 -119 0 -16 107 129 234 317 231 340 395 538 537 650 l62 49 -6 -49 c-9 -63 -54 -160 -97 -209 -19 -21 -57 -53 -84 -72 -47 -32 -49 -34 -23 -34 35 0 139 43 192 80 114 79 244 235 320 384 l46 89 -7 86 c-7 107 -47 306 -78 399 -132 387 -402 663 -841 860 -107 48 -363 142 -387 142 -23 0 20 -31 255 -189 139 -93 291 -202 338 -244 137 -120 229 -257 264 -395 28 -109 14 -133 -70 -118 -70 13 -177 142 -212 255 -29 92 -123 176 -428 382 -144 96 -284 220 -338 298 l-30 44 19 35 c44 81 118 109 322 121 79 5 146 11 148 14 10 9 -88 60 -160 84 -68 22 -204 44 -256 42 -14 -1 -51 -5 -82 -9z" />
    <path
       id="path14"
       d="M2256 3400 c-26 -28 -59 -76 -73 -106 -37 -80 -24 -119 82 -259 90 -118 133 -196 160 -289 25 -88 15 -126 -54 -223 -194 -271 -322 -575 -362 -862 -14 -103 -7 -294 16 -376 32 -120 91 -222 176 -307 43 -43 83 -78 89 -78 6 0 5 14 -5 37 -53 127 -65 343 -26 488 81 306 318 540 603 598 l58 12 -67 45 c-230 154 -262 517 -66 757 25 30 43 56 41 58 -2 1 -30 10 -63 20 -126 36 -226 106 -301 210 -53 74 -108 194 -125 273 -7 28 -18 52 -24 52 -7 0 -33 -23 -59 -50z" />
    <path
       id="path16"
       d="M474 3389 c-15 -16 -19 -36 -19 -88 0 -57 5 -74 35 -125 37 -65 36 -65 55 18 3 16 31 55 62 87 31 33 54 62 50 65 -3 3 -29 1 -57 -5 -70 -15 -96 -14 -115 5 -15 15 -15 18 1 35 10 11 15 21 12 24 -3 3 -13 -4 -24 -16z" />
    <path
       id="path18"
       d="M1030 3372 c0 -5 9 -17 19 -26 29 -26 34 -67 15 -115 -19 -49 -59 -80 -111 -87 -76 -10 -87 -14 -74 -27 7 -7 45 -12 98 -12 91 0 104 -7 83 -44 -10 -20 -49 -35 -121 -46 -21 -3 -42 -12 -49 -20 -26 -31 169 -33 244 -1 49 20 79 82 80 162 0 112 -78 224 -155 224 -16 0 -29 -4 -29 -8z" />
    <path
       id="path20"
       d="M600 2996 c0 -2 7 -23 15 -46 8 -23 15 -51 15 -61 0 -18 -1 -19 -25 -3 -23 15 -25 15 -25 1 0 -28 42 -129 61 -148 12 -12 33 -19 59 -19 38 0 39 1 34 29 -5 24 0 34 24 56 l31 27 -87 84 c-77 74 -102 94 -102 80z" />
    <path
       id="path22"
       d="M840 2841 c0 -3 8 -16 18 -28 32 -41 95 -56 267 -63 88 -3 169 -10 179 -15 15 -6 11 3 -14 33 -51 64 -93 76 -247 68 -71 -3 -145 -2 -165 3 -21 5 -38 6 -38 2z" />
    <path
       id="path24"
       d="M2785 2499 c-6 -8 -2 -17 11 -23 50 -28 132 -124 154 -182 41 -108 25 -263 -39 -364 -77 -123 -182 -190 -340 -215 -114 -18 -211 -236 -211 -474 0 -86 17 -211 29 -211 8 0 43 56 115 187 71 127 132 210 192 256 53 41 129 70 174 65 l31 -3 -49 -70 c-28 -38 -94 -122 -149 -185 -186 -216 -256 -325 -294 -457 -22 -76 -37 -243 -23 -243 17 0 98 91 189 210 49 63 132 158 184 210 106 105 183 151 301 180 l65 16 38 72 c21 40 50 116 64 170 22 84 26 119 27 257 0 167 -12 257 -56 395 -68 214 -225 393 -365 416 -28 4 -43 2 -48 -7z" />
    <path
       id="path26"
       d="M2945 1074 c-59 -21 -105 -47 -105 -59 0 -51 -35 -269 -55 -343 -38 -141 -129 -352 -187 -435 -35 -49 -2 -28 61 38 122 131 240 342 295 530 23 77 49 287 35 284 -2 0 -22 -7 -44 -15z" />
    <path
       id="path28"
       d="M2713 918 c-32 -23 -67 -83 -104 -184 l-20 -52 36 -58 c19 -33 35 -64 35 -71 0 -46 61 6 85 72 17 49 26 315 10 315 -6 0 -25 -10 -42 -22z" />
  </g>
</svg>
